<svg xmlns="http://www.w3.org/2000/svg" width="16" height="16" fill="none" viewBox="0 0 16 16">
  <path fill="currentColor" d="M7.1 1.8a5.3 5.3 0 0 1 4.2 8.55l2.44 2.43a.68.68 0 0 1 0 .96.68.68 0 0 1-.96 0l-2.43-2.44A5.3 5.3 0 1 1 7.1 1.8Zm0 1.36a3.94 3.94 0 1 0 0 7.88 3.94 3.94 0 0 0 0-7.88Z"/>
  <path fill="currentColor" d="M5.05 4.82a.62.62 0 0 1 .88 0L7.1 5.99l1.17-1.17a.62.62 0 0 1 .88.88L7.98 6.87l1.17 1.17a.62.62 0 0 1-.88.88L7.1 7.75 5.93 8.92a.62.62 0 0 1-.88-.88l1.17-1.17L5.05 5.7a.62.62 0 0 1 0-.88Z"/>
</svg>
