<svg xmlns="http://www.w3.org/2000/svg" width="16" height="16" fill="none" viewBox="0 0 16 16">
  <path fill="currentColor" d="M7.1 1.8a5.3 5.3 0 0 1 4.2 8.55l2.44 2.43a.68.68 0 0 1 0 .96.68.68 0 0 1-.96 0l-2.43-2.44A5.3 5.3 0 1 1 7.1 1.8Zm0 1.36a3.94 3.94 0 1 0 0 7.88 3.94 3.94 0 0 0 0-7.88Z"/>
  <g transform="translate(4.34 4.11) scale(.23)">
    <path fill="currentColor" d="M21.742 21.75l-7.563-11.179 7.056-8.321h-2.456l-5.691 6.714-4.54-6.714H2.359l7.29 10.776L2.25 21.75h2.456l6.035-7.118 4.818 7.118h6.191-.008zM7.739 3.818L18.81 20.182h-2.447L5.29 3.818h2.447z"/>
  </g>
</svg>
